<mxfile host="app.diagrams.net" modified="2023-08-18T03:02:09.413Z" agent="Mozilla/5.0 (Windows NT 10.0; Win64; x64) AppleWebKit/537.36 (KHTML, like Gecko) Chrome/115.0.0.0 Safari/537.36 Edg/115.0.1901.203" etag="tzNAzbPxCQyBVdlzMPpD" version="21.6.8" type="github">
  <diagram name="第 1 页" id="2Kp2IsGIeOANgpGV9u3z">
    <mxGraphModel dx="3116" dy="106" grid="1" gridSize="10" guides="1" tooltips="1" connect="1" arrows="1" fold="1" page="1" pageScale="1" pageWidth="827" pageHeight="1169" math="0" shadow="0">
      <root>
        <mxCell id="0" />
        <mxCell id="1" parent="0" />
        <mxCell id="GZBGt0tV6EPpzuoUCOiD-38" value="" style="group" vertex="1" connectable="0" parent="1">
          <mxGeometry x="1090" y="1871" width="450" height="210" as="geometry" />
        </mxCell>
        <mxCell id="ebNL-Uzspq8U-VdhPVA--2" value="" style="rounded=1;whiteSpace=wrap;html=1;strokeColor=none;fillColor=#BAC8D3;fontSize=24;fontColor=#23445D;align=center;opacity=60;container=0;" parent="GZBGt0tV6EPpzuoUCOiD-38" vertex="1">
          <mxGeometry width="450" height="210" as="geometry" />
        </mxCell>
        <mxCell id="ebNL-Uzspq8U-VdhPVA--3" value="" style="shape=mxgraph.cisco.servers.fileserver;html=1;dashed=0;fillColor=#10739E;strokeColor=#ffffff;strokeWidth=2;verticalLabelPosition=bottom;verticalAlign=top;fontFamily=Helvetica;fontSize=36;fontColor=#FFB366" parent="GZBGt0tV6EPpzuoUCOiD-38" vertex="1">
          <mxGeometry x="80" y="87" width="43" height="62" as="geometry" />
        </mxCell>
        <mxCell id="ebNL-Uzspq8U-VdhPVA--4" value="" style="shape=mxgraph.cisco.servers.fileserver;html=1;dashed=0;fillColor=#10739E;strokeColor=#ffffff;strokeWidth=2;verticalLabelPosition=bottom;verticalAlign=top;fontFamily=Helvetica;fontSize=36;fontColor=#FFB366" parent="GZBGt0tV6EPpzuoUCOiD-38" vertex="1">
          <mxGeometry x="153" y="87" width="43" height="62" as="geometry" />
        </mxCell>
        <mxCell id="ebNL-Uzspq8U-VdhPVA--5" value="" style="shape=mxgraph.cisco.computers_and_peripherals.ibm_mainframe;html=1;dashed=0;fillColor=#10739E;strokeColor=#ffffff;strokeWidth=2;verticalLabelPosition=bottom;verticalAlign=top;fontFamily=Helvetica;fontSize=36;fontColor=#FFB366" parent="GZBGt0tV6EPpzuoUCOiD-38" vertex="1">
          <mxGeometry x="231" y="83" width="50" height="70" as="geometry" />
        </mxCell>
        <mxCell id="ebNL-Uzspq8U-VdhPVA--6" value="" style="shape=mxgraph.cisco.servers.storage_server;html=1;dashed=0;fillColor=#10739E;strokeColor=#ffffff;strokeWidth=2;verticalLabelPosition=bottom;verticalAlign=top;fontFamily=Helvetica;fontSize=36;fontColor=#FFB366" parent="GZBGt0tV6EPpzuoUCOiD-38" vertex="1">
          <mxGeometry x="308" y="71" width="54" height="83" as="geometry" />
        </mxCell>
        <mxCell id="ebNL-Uzspq8U-VdhPVA--7" value="" style="line;html=1;strokeColor=#468CAA;" parent="GZBGt0tV6EPpzuoUCOiD-38" vertex="1">
          <mxGeometry x="101" y="21.5" width="234" height="10" as="geometry" />
        </mxCell>
        <mxCell id="ebNL-Uzspq8U-VdhPVA--8" value="" style="elbow=horizontal;endArrow=none;html=1;strokeColor=#468CAA;endFill=0;strokeWidth=4;rounded=1;exitX=0.5;exitY=0;exitDx=0;exitDy=0;exitPerimeter=0;entryX=0;entryY=0.5;entryDx=0;entryDy=0;entryPerimeter=0;" parent="GZBGt0tV6EPpzuoUCOiD-38" source="ebNL-Uzspq8U-VdhPVA--3" edge="1" target="ebNL-Uzspq8U-VdhPVA--7">
          <mxGeometry width="100" height="100" relative="1" as="geometry">
            <mxPoint x="99" y="160" as="sourcePoint" />
            <mxPoint x="99.27777777777737" y="202.08333333333348" as="targetPoint" />
          </mxGeometry>
        </mxCell>
        <mxCell id="ebNL-Uzspq8U-VdhPVA--9" value="" style="edgeStyle=elbowEdgeStyle;elbow=horizontal;endArrow=none;html=1;strokeColor=#468CAA;endFill=0;strokeWidth=4;rounded=1;exitX=0.5;exitY=0;exitDx=0;exitDy=0;exitPerimeter=0;entryX=0.315;entryY=0.814;entryDx=0;entryDy=0;entryPerimeter=0;" parent="GZBGt0tV6EPpzuoUCOiD-38" source="ebNL-Uzspq8U-VdhPVA--4" edge="1" target="ebNL-Uzspq8U-VdhPVA--7">
          <mxGeometry width="100" height="100" relative="1" as="geometry">
            <mxPoint x="171" y="160" as="sourcePoint" />
            <mxPoint x="175" y="67.5" as="targetPoint" />
          </mxGeometry>
        </mxCell>
        <mxCell id="ebNL-Uzspq8U-VdhPVA--10" value="" style="edgeStyle=elbowEdgeStyle;elbow=horizontal;endArrow=none;html=1;strokeColor=#468CAA;endFill=0;strokeWidth=4;rounded=1;exitX=0.5;exitY=0;exitDx=0;exitDy=0;exitPerimeter=0;entryX=0.663;entryY=0.814;entryDx=0;entryDy=0;entryPerimeter=0;" parent="GZBGt0tV6EPpzuoUCOiD-38" source="ebNL-Uzspq8U-VdhPVA--5" edge="1" target="ebNL-Uzspq8U-VdhPVA--7">
          <mxGeometry width="100" height="100" relative="1" as="geometry">
            <mxPoint x="255" y="160" as="sourcePoint" />
            <mxPoint x="255" y="57.5" as="targetPoint" />
          </mxGeometry>
        </mxCell>
        <mxCell id="ebNL-Uzspq8U-VdhPVA--11" value="" style="elbow=horizontal;endArrow=none;html=1;strokeColor=#468CAA;endFill=0;strokeWidth=4;rounded=1;exitX=0.5;exitY=0;exitDx=0;exitDy=0;exitPerimeter=0;entryX=1;entryY=0.5;entryDx=0;entryDy=0;entryPerimeter=0;" parent="GZBGt0tV6EPpzuoUCOiD-38" source="ebNL-Uzspq8U-VdhPVA--6" edge="1" target="ebNL-Uzspq8U-VdhPVA--7">
          <mxGeometry width="100" height="100" relative="1" as="geometry">
            <mxPoint x="340" y="160" as="sourcePoint" />
            <mxPoint x="335" y="57.5" as="targetPoint" />
          </mxGeometry>
        </mxCell>
        <mxCell id="ebNL-Uzspq8U-VdhPVA--12" value="&lt;font color=&quot;#23445d&quot;&gt;DMZ&lt;/font&gt;&lt;br&gt;&lt;font color=&quot;#003366&quot;&gt;(web&lt;span style=&quot;font-size:12.0pt;font-family:&amp;quot;新細明體&amp;quot;,serif;mso-bidi-font-family:Calibri;&lt;br/&gt;mso-ansi-language:EN-US;mso-fareast-language:ZH-TW;mso-bidi-language:AR-SA&quot;&gt;官網、&lt;/span&gt;&lt;span style=&quot;font-size:12.0pt;font-family:&amp;quot;Calibri&amp;quot;,sans-serif;mso-fareast-font-family:&lt;br/&gt;新細明體;mso-ansi-language:EN-US;mso-fareast-language:ZH-TW;mso-bidi-language:AR-SA&quot; lang=&quot;EN-US&quot;&gt;mail&lt;/span&gt;&lt;span style=&quot;font-size:12.0pt;font-family:&amp;quot;新細明體&amp;quot;,serif;mso-bidi-font-family:Calibri;&lt;br/&gt;mso-ansi-language:EN-US;mso-fareast-language:ZH-TW;mso-bidi-language:AR-SA&quot;&gt;、&lt;/span&gt;&lt;span style=&quot;font-size:12.0pt;font-family:&amp;quot;Calibri&amp;quot;,sans-serif;mso-fareast-font-family:&lt;br/&gt;新細明體;mso-ansi-language:EN-US;mso-fareast-language:ZH-TW;mso-bidi-language:AR-SA&quot; lang=&quot;EN-US&quot;&gt;Lync&lt;/span&gt;&lt;span style=&quot;font-size:12.0pt;font-family:&amp;quot;新細明體&amp;quot;,serif;mso-bidi-font-family:Calibri;&lt;br/&gt;mso-ansi-language:EN-US;mso-fareast-language:ZH-TW;mso-bidi-language:AR-SA&quot;&gt;、客戶&lt;/span&gt;&lt;span style=&quot;font-size:12.0pt;font-family:&amp;quot;Calibri&amp;quot;,sans-serif;mso-fareast-font-family:&lt;br/&gt;新細明體;mso-ansi-language:EN-US;mso-fareast-language:ZH-TW;mso-bidi-language:AR-SA&quot; lang=&quot;EN-US&quot;&gt;FTP、EasyFlow)&lt;/span&gt;&lt;/font&gt;&lt;font color=&quot;#23445d&quot;&gt;&lt;br&gt;&lt;/font&gt;" style="rounded=1;whiteSpace=wrap;html=1;strokeColor=none;fillColor=none;fontSize=14;fontColor=#742B21;align=center;fontStyle=1" parent="GZBGt0tV6EPpzuoUCOiD-38" vertex="1">
          <mxGeometry x="41" y="171" width="370" height="19" as="geometry" />
        </mxCell>
        <mxCell id="12ae3frHGvqBDCMUcqmj-1" value="" style="group" parent="1" vertex="1" connectable="0">
          <mxGeometry x="1057" y="2482" width="450" height="210" as="geometry" />
        </mxCell>
        <mxCell id="12ae3frHGvqBDCMUcqmj-2" value="" style="rounded=1;whiteSpace=wrap;html=1;strokeColor=none;fillColor=#BAC8D3;fontSize=24;fontColor=#23445D;align=center;opacity=60;" parent="12ae3frHGvqBDCMUcqmj-1" vertex="1">
          <mxGeometry width="450" height="210" as="geometry" />
        </mxCell>
        <mxCell id="12ae3frHGvqBDCMUcqmj-3" value="" style="shape=mxgraph.cisco.servers.fileserver;html=1;dashed=0;fillColor=#10739E;strokeColor=#ffffff;strokeWidth=2;verticalLabelPosition=bottom;verticalAlign=top;fontFamily=Helvetica;fontSize=36;fontColor=#FFB366" parent="12ae3frHGvqBDCMUcqmj-1" vertex="1">
          <mxGeometry x="80" y="67" width="43" height="62" as="geometry" />
        </mxCell>
        <mxCell id="12ae3frHGvqBDCMUcqmj-4" value="" style="shape=mxgraph.cisco.servers.fileserver;html=1;dashed=0;fillColor=#10739E;strokeColor=#ffffff;strokeWidth=2;verticalLabelPosition=bottom;verticalAlign=top;fontFamily=Helvetica;fontSize=36;fontColor=#FFB366" parent="12ae3frHGvqBDCMUcqmj-1" vertex="1">
          <mxGeometry x="150" y="67" width="43" height="62" as="geometry" />
        </mxCell>
        <mxCell id="12ae3frHGvqBDCMUcqmj-5" value="" style="shape=mxgraph.cisco.computers_and_peripherals.ibm_mainframe;html=1;dashed=0;fillColor=#10739E;strokeColor=#ffffff;strokeWidth=2;verticalLabelPosition=bottom;verticalAlign=top;fontFamily=Helvetica;fontSize=36;fontColor=#FFB366" parent="12ae3frHGvqBDCMUcqmj-1" vertex="1">
          <mxGeometry x="230" y="63" width="50" height="70" as="geometry" />
        </mxCell>
        <mxCell id="12ae3frHGvqBDCMUcqmj-6" value="" style="shape=mxgraph.cisco.servers.storage_server;html=1;dashed=0;fillColor=#10739E;strokeColor=#ffffff;strokeWidth=2;verticalLabelPosition=bottom;verticalAlign=top;fontFamily=Helvetica;fontSize=36;fontColor=#FFB366" parent="12ae3frHGvqBDCMUcqmj-1" vertex="1">
          <mxGeometry x="310" y="51" width="54" height="83" as="geometry" />
        </mxCell>
        <mxCell id="12ae3frHGvqBDCMUcqmj-7" value="" style="line;html=1;strokeColor=#468CAA;" parent="12ae3frHGvqBDCMUcqmj-1" vertex="1">
          <mxGeometry x="101" y="21" width="245" height="10" as="geometry" />
        </mxCell>
        <mxCell id="12ae3frHGvqBDCMUcqmj-8" value="" style="elbow=horizontal;endArrow=none;html=1;strokeColor=#468CAA;endFill=0;strokeWidth=4;rounded=1;entryX=0;entryY=0.5;entryDx=0;entryDy=0;entryPerimeter=0;" parent="12ae3frHGvqBDCMUcqmj-1" source="12ae3frHGvqBDCMUcqmj-3" edge="1" target="12ae3frHGvqBDCMUcqmj-7">
          <mxGeometry width="100" height="100" relative="1" as="geometry">
            <mxPoint x="99" y="140" as="sourcePoint" />
            <mxPoint x="99.27777777777737" y="182.08333333333348" as="targetPoint" />
          </mxGeometry>
        </mxCell>
        <mxCell id="12ae3frHGvqBDCMUcqmj-9" value="" style="elbow=horizontal;endArrow=none;html=1;strokeColor=#468CAA;endFill=0;strokeWidth=4;rounded=1;" parent="12ae3frHGvqBDCMUcqmj-1" source="12ae3frHGvqBDCMUcqmj-4" edge="1">
          <mxGeometry width="100" height="100" relative="1" as="geometry">
            <mxPoint x="171" y="140" as="sourcePoint" />
            <mxPoint x="172" y="28" as="targetPoint" />
          </mxGeometry>
        </mxCell>
        <mxCell id="12ae3frHGvqBDCMUcqmj-10" value="" style="edgeStyle=elbowEdgeStyle;elbow=horizontal;endArrow=none;html=1;strokeColor=#468CAA;endFill=0;strokeWidth=4;rounded=1;entryX=0.634;entryY=0.64;entryDx=0;entryDy=0;entryPerimeter=0;" parent="12ae3frHGvqBDCMUcqmj-1" source="12ae3frHGvqBDCMUcqmj-5" edge="1" target="12ae3frHGvqBDCMUcqmj-7">
          <mxGeometry width="100" height="100" relative="1" as="geometry">
            <mxPoint x="255" y="140" as="sourcePoint" />
            <mxPoint x="255.27777777777737" y="182.08333333333348" as="targetPoint" />
          </mxGeometry>
        </mxCell>
        <mxCell id="12ae3frHGvqBDCMUcqmj-11" value="" style="elbow=horizontal;endArrow=none;html=1;strokeColor=#468CAA;endFill=0;strokeWidth=4;rounded=1;entryX=1;entryY=0.5;entryDx=0;entryDy=0;entryPerimeter=0;exitX=0.667;exitY=0.027;exitDx=0;exitDy=0;exitPerimeter=0;" parent="12ae3frHGvqBDCMUcqmj-1" source="12ae3frHGvqBDCMUcqmj-6" edge="1" target="12ae3frHGvqBDCMUcqmj-7">
          <mxGeometry width="100" height="100" relative="1" as="geometry">
            <mxPoint x="340" y="140" as="sourcePoint" />
            <mxPoint x="340.2777777777774" y="182.08333333333348" as="targetPoint" />
          </mxGeometry>
        </mxCell>
        <mxCell id="12ae3frHGvqBDCMUcqmj-12" value="&lt;font color=&quot;#23445d&quot;&gt;Servers ( 實體 )&lt;/font&gt;" style="rounded=1;whiteSpace=wrap;html=1;strokeColor=none;fillColor=none;fontSize=14;fontColor=#742B21;align=center;fontStyle=1" parent="12ae3frHGvqBDCMUcqmj-1" vertex="1">
          <mxGeometry x="153.5" y="168" width="143" height="19" as="geometry" />
        </mxCell>
        <mxCell id="12ae3frHGvqBDCMUcqmj-13" style="rounded=1;orthogonalLoop=1;jettySize=auto;html=1;exitX=0.5;exitY=0;exitDx=0;exitDy=0;entryX=0.5;entryY=0.98;entryDx=0;entryDy=0;entryPerimeter=0;strokeColor=#468CAA;strokeWidth=4;endArrow=none;endFill=0;" parent="1" source="12ae3frHGvqBDCMUcqmj-60" target="12ae3frHGvqBDCMUcqmj-56" edge="1">
          <mxGeometry relative="1" as="geometry" />
        </mxCell>
        <mxCell id="12ae3frHGvqBDCMUcqmj-14" value="" style="group" parent="1" vertex="1" connectable="0">
          <mxGeometry x="199.9999999999999" y="2209" width="105" height="112" as="geometry" />
        </mxCell>
        <mxCell id="12ae3frHGvqBDCMUcqmj-15" value="" style="sketch=0;points=[[0.015,0.015,0],[0.985,0.015,0],[0.985,0.985,0],[0.015,0.985,0],[0.25,0,0],[0.5,0,0],[0.75,0,0],[1,0.25,0],[1,0.5,0],[1,0.75,0],[0.75,1,0],[0.5,1,0],[0.25,1,0],[0,0.75,0],[0,0.5,0],[0,0.25,0]];verticalLabelPosition=bottom;html=1;verticalAlign=top;aspect=fixed;align=center;pointerEvents=1;shape=mxgraph.cisco19.rect;prIcon=firewall;fillColor=#FAFAFA;strokeColor=#005073;" parent="12ae3frHGvqBDCMUcqmj-14" vertex="1">
          <mxGeometry x="1.3000000000000114" width="102.4" height="80" as="geometry" />
        </mxCell>
        <mxCell id="12ae3frHGvqBDCMUcqmj-17" value="" style="group;points=[[0,0,0,0,0],[0,0.25,0,0,0],[0,0.5,0,0,0],[0,0.75,0,0,0],[0,1,0,0,0],[0.25,0,0,0,0],[0.25,1,0,0,0],[0.5,0,0,0,0],[0.5,1,0,0,0],[0.75,0,0,0,0],[0.75,1,0,0,0],[1,0,0,0,0],[1,0.25,0,0,0],[1,0.5,0,0,0],[1,0.75,0,0,0],[1,1,0,0,0]];" parent="1" vertex="1" connectable="0">
          <mxGeometry x="520" y="2204" width="110" height="120" as="geometry" />
        </mxCell>
        <mxCell id="12ae3frHGvqBDCMUcqmj-18" value="" style="shape=mxgraph.cisco.switches.layer_3_switch;sketch=0;html=1;pointerEvents=1;dashed=0;fillColor=#036897;strokeColor=#ffffff;strokeWidth=2;verticalLabelPosition=bottom;verticalAlign=top;align=center;outlineConnect=0;aspect=fixed;points=[[0,0.25,0,0,0],[0,0.5,0,0,0],[0,0.76,0,0,0],[0,1,0,0,0],[0.07,0,0,0,0],[0.29,0,0,0,0],[0.5,0,0,0,0],[0.5,1,0,0,0],[0.75,0,0,0,0],[0.95,0.94,0,0,0],[1,0,0,0,0],[1,0.5,0,0,0]];" parent="12ae3frHGvqBDCMUcqmj-17" vertex="1">
          <mxGeometry x="10.5" width="89" height="89" as="geometry" />
        </mxCell>
        <mxCell id="12ae3frHGvqBDCMUcqmj-20" style="rounded=1;orthogonalLoop=1;jettySize=auto;html=1;exitX=1;exitY=0.5;exitDx=0;exitDy=0;exitPerimeter=0;strokeColor=#468CAA;endArrow=none;endFill=0;strokeWidth=4;" parent="1" source="12ae3frHGvqBDCMUcqmj-15" target="12ae3frHGvqBDCMUcqmj-18" edge="1">
          <mxGeometry relative="1" as="geometry" />
        </mxCell>
        <mxCell id="12ae3frHGvqBDCMUcqmj-21" value="" style="group" parent="1" vertex="1" connectable="0">
          <mxGeometry x="1365" y="2207" width="90" height="113" as="geometry" />
        </mxCell>
        <mxCell id="12ae3frHGvqBDCMUcqmj-22" value="" style="sketch=0;points=[[0.015,0.015,0],[0.985,0.015,0],[0.985,0.985,0],[0.015,0.985,0],[0.25,0,0],[0.5,0,0],[0.75,0,0],[1,0.25,0],[1,0.5,0],[1,0.75,0],[0.75,1,0],[0.5,1,0],[0.25,1,0],[0,0.75,0],[0,0.5,0],[0,0.25,0]];verticalLabelPosition=bottom;html=1;verticalAlign=top;aspect=fixed;align=center;pointerEvents=1;shape=mxgraph.cisco19.rect;prIcon=l3_switch;fillColor=#FAFAFA;strokeColor=#005073;" parent="12ae3frHGvqBDCMUcqmj-21" vertex="1">
          <mxGeometry x="5" width="80" height="80" as="geometry" />
        </mxCell>
        <mxCell id="12ae3frHGvqBDCMUcqmj-24" style="rounded=1;orthogonalLoop=1;jettySize=auto;html=1;strokeWidth=4;strokeColor=#97D077;endArrow=none;endFill=0;" parent="1" source="12ae3frHGvqBDCMUcqmj-18" target="12ae3frHGvqBDCMUcqmj-64" edge="1">
          <mxGeometry relative="1" as="geometry" />
        </mxCell>
        <mxCell id="12ae3frHGvqBDCMUcqmj-25" style="rounded=1;orthogonalLoop=1;jettySize=auto;html=1;strokeColor=#97D077;strokeWidth=4;endArrow=none;endFill=0;" parent="1" source="12ae3frHGvqBDCMUcqmj-64" target="12ae3frHGvqBDCMUcqmj-22" edge="1">
          <mxGeometry relative="1" as="geometry">
            <mxPoint x="1380" y="2170" as="targetPoint" />
          </mxGeometry>
        </mxCell>
        <mxCell id="12ae3frHGvqBDCMUcqmj-26" value="" style="group" parent="1" vertex="1" connectable="0">
          <mxGeometry x="315" y="2404" width="100" height="149.44000000000005" as="geometry" />
        </mxCell>
        <mxCell id="12ae3frHGvqBDCMUcqmj-27" value="" style="shape=mxgraph.cisco.routers.router;sketch=0;html=1;pointerEvents=1;dashed=0;fillColor=#036897;strokeColor=#ffffff;strokeWidth=2;verticalLabelPosition=bottom;verticalAlign=top;align=center;outlineConnect=0;aspect=fixed;" parent="12ae3frHGvqBDCMUcqmj-26" vertex="1">
          <mxGeometry x="7" width="86" height="58.44" as="geometry" />
        </mxCell>
        <mxCell id="eVyLxdBei2JVoM4hP0GL-2" value="" style="group" parent="12ae3frHGvqBDCMUcqmj-26" vertex="1" connectable="0">
          <mxGeometry y="118.44000000000005" width="100" height="91" as="geometry" />
        </mxCell>
        <mxCell id="eVyLxdBei2JVoM4hP0GL-3" value="" style="shape=mxgraph.cisco.routers.router;sketch=0;html=1;pointerEvents=1;dashed=0;fillColor=#036897;strokeColor=#ffffff;strokeWidth=2;verticalLabelPosition=bottom;verticalAlign=top;align=center;outlineConnect=0;aspect=fixed;" parent="eVyLxdBei2JVoM4hP0GL-2" vertex="1">
          <mxGeometry x="7" width="86" height="58.44" as="geometry" />
        </mxCell>
        <mxCell id="GZBGt0tV6EPpzuoUCOiD-46" style="rounded=1;orthogonalLoop=1;jettySize=auto;html=1;exitX=0.5;exitY=0;exitDx=0;exitDy=0;entryX=0.5;entryY=1;entryDx=0;entryDy=0;entryPerimeter=0;strokeColor=#FF66B3;strokeWidth=4;endArrow=none;endFill=0;exitPerimeter=0;" edge="1" parent="12ae3frHGvqBDCMUcqmj-26" source="eVyLxdBei2JVoM4hP0GL-3" target="12ae3frHGvqBDCMUcqmj-27">
          <mxGeometry relative="1" as="geometry">
            <mxPoint x="380" y="137" as="sourcePoint" />
            <mxPoint x="380" y="59" as="targetPoint" />
          </mxGeometry>
        </mxCell>
        <mxCell id="12ae3frHGvqBDCMUcqmj-32" style="rounded=1;orthogonalLoop=1;jettySize=auto;html=1;strokeColor=#468CAA;strokeWidth=4;endArrow=none;endFill=0;" parent="1" source="12ae3frHGvqBDCMUcqmj-27" target="12ae3frHGvqBDCMUcqmj-18" edge="1">
          <mxGeometry relative="1" as="geometry" />
        </mxCell>
        <mxCell id="12ae3frHGvqBDCMUcqmj-33" style="rounded=1;orthogonalLoop=1;jettySize=auto;html=1;endArrow=none;endFill=0;strokeWidth=4;strokeColor=#97D077;exitX=0;exitY=0.5;exitDx=0;exitDy=0;exitPerimeter=0;jumpStyle=arc;" parent="1" source="ebNL-Uzspq8U-VdhPVA--17" target="12ae3frHGvqBDCMUcqmj-64" edge="1">
          <mxGeometry relative="1" as="geometry">
            <mxPoint x="897.1999999999998" y="2010" as="sourcePoint" />
            <mxPoint x="830" y="1850" as="targetPoint" />
          </mxGeometry>
        </mxCell>
        <mxCell id="12ae3frHGvqBDCMUcqmj-34" value="" style="group" parent="1" vertex="1" connectable="0">
          <mxGeometry x="1590" y="2482" width="450" height="210" as="geometry" />
        </mxCell>
        <mxCell id="12ae3frHGvqBDCMUcqmj-35" value="" style="rounded=1;whiteSpace=wrap;html=1;strokeColor=none;fillColor=#BAC8D3;fontSize=24;fontColor=#23445D;align=center;opacity=60;" parent="12ae3frHGvqBDCMUcqmj-34" vertex="1">
          <mxGeometry width="450" height="210" as="geometry" />
        </mxCell>
        <mxCell id="12ae3frHGvqBDCMUcqmj-36" value="" style="shape=mxgraph.cisco.servers.fileserver;html=1;dashed=0;fillColor=#10739E;strokeColor=#ffffff;strokeWidth=2;verticalLabelPosition=bottom;verticalAlign=top;fontFamily=Helvetica;fontSize=36;fontColor=#FFB366" parent="12ae3frHGvqBDCMUcqmj-34" vertex="1">
          <mxGeometry x="80" y="67" width="43" height="62" as="geometry" />
        </mxCell>
        <mxCell id="12ae3frHGvqBDCMUcqmj-37" value="" style="shape=mxgraph.cisco.servers.fileserver;html=1;dashed=0;fillColor=#10739E;strokeColor=#ffffff;strokeWidth=2;verticalLabelPosition=bottom;verticalAlign=top;fontFamily=Helvetica;fontSize=36;fontColor=#FFB366" parent="12ae3frHGvqBDCMUcqmj-34" vertex="1">
          <mxGeometry x="150" y="67" width="43" height="62" as="geometry" />
        </mxCell>
        <mxCell id="12ae3frHGvqBDCMUcqmj-38" value="" style="shape=mxgraph.cisco.computers_and_peripherals.ibm_mainframe;html=1;dashed=0;fillColor=#10739E;strokeColor=#ffffff;strokeWidth=2;verticalLabelPosition=bottom;verticalAlign=top;fontFamily=Helvetica;fontSize=36;fontColor=#FFB366" parent="12ae3frHGvqBDCMUcqmj-34" vertex="1">
          <mxGeometry x="230" y="63" width="50" height="70" as="geometry" />
        </mxCell>
        <mxCell id="12ae3frHGvqBDCMUcqmj-39" value="" style="shape=mxgraph.cisco.servers.storage_server;html=1;dashed=0;fillColor=#10739E;strokeColor=#ffffff;strokeWidth=2;verticalLabelPosition=bottom;verticalAlign=top;fontFamily=Helvetica;fontSize=36;fontColor=#FFB366" parent="12ae3frHGvqBDCMUcqmj-34" vertex="1">
          <mxGeometry x="310" y="51" width="54" height="83" as="geometry" />
        </mxCell>
        <mxCell id="12ae3frHGvqBDCMUcqmj-40" value="" style="line;html=1;strokeColor=#468CAA;" parent="12ae3frHGvqBDCMUcqmj-34" vertex="1">
          <mxGeometry x="101" y="18" width="236" height="10" as="geometry" />
        </mxCell>
        <mxCell id="12ae3frHGvqBDCMUcqmj-41" value="" style="elbow=horizontal;endArrow=none;html=1;strokeColor=#468CAA;endFill=0;strokeWidth=4;rounded=1;entryX=0;entryY=0.5;entryDx=0;entryDy=0;entryPerimeter=0;" parent="12ae3frHGvqBDCMUcqmj-34" source="12ae3frHGvqBDCMUcqmj-36" edge="1" target="12ae3frHGvqBDCMUcqmj-40">
          <mxGeometry width="100" height="100" relative="1" as="geometry">
            <mxPoint x="99" y="140" as="sourcePoint" />
            <mxPoint x="99.27777777777737" y="182.08333333333348" as="targetPoint" />
          </mxGeometry>
        </mxCell>
        <mxCell id="12ae3frHGvqBDCMUcqmj-42" value="" style="edgeStyle=elbowEdgeStyle;elbow=horizontal;endArrow=none;html=1;strokeColor=#468CAA;endFill=0;strokeWidth=4;rounded=1;entryX=0.296;entryY=0.763;entryDx=0;entryDy=0;entryPerimeter=0;" parent="12ae3frHGvqBDCMUcqmj-34" source="12ae3frHGvqBDCMUcqmj-37" edge="1" target="12ae3frHGvqBDCMUcqmj-40">
          <mxGeometry width="100" height="100" relative="1" as="geometry">
            <mxPoint x="171" y="140" as="sourcePoint" />
            <mxPoint x="171.27777777777828" y="182.08333333333348" as="targetPoint" />
          </mxGeometry>
        </mxCell>
        <mxCell id="12ae3frHGvqBDCMUcqmj-43" value="" style="edgeStyle=elbowEdgeStyle;elbow=horizontal;endArrow=none;html=1;strokeColor=#468CAA;endFill=0;strokeWidth=4;rounded=1;entryX=0.655;entryY=0.763;entryDx=0;entryDy=0;entryPerimeter=0;" parent="12ae3frHGvqBDCMUcqmj-34" source="12ae3frHGvqBDCMUcqmj-38" edge="1" target="12ae3frHGvqBDCMUcqmj-40">
          <mxGeometry width="100" height="100" relative="1" as="geometry">
            <mxPoint x="255" y="140" as="sourcePoint" />
            <mxPoint x="255.27777777777737" y="182.08333333333348" as="targetPoint" />
          </mxGeometry>
        </mxCell>
        <mxCell id="12ae3frHGvqBDCMUcqmj-44" value="" style="elbow=horizontal;endArrow=none;html=1;strokeColor=#468CAA;endFill=0;strokeWidth=4;rounded=1;entryX=1;entryY=0.5;entryDx=0;entryDy=0;entryPerimeter=0;" parent="12ae3frHGvqBDCMUcqmj-34" source="12ae3frHGvqBDCMUcqmj-39" edge="1" target="12ae3frHGvqBDCMUcqmj-40">
          <mxGeometry width="100" height="100" relative="1" as="geometry">
            <mxPoint x="340" y="140" as="sourcePoint" />
            <mxPoint x="340.2777777777774" y="182.08333333333348" as="targetPoint" />
          </mxGeometry>
        </mxCell>
        <mxCell id="12ae3frHGvqBDCMUcqmj-45" value="&lt;font color=&quot;#23445d&quot;&gt;Servers ( VM )&lt;/font&gt;" style="rounded=1;whiteSpace=wrap;html=1;strokeColor=none;fillColor=none;fontSize=14;fontColor=#742B21;align=center;fontStyle=1" parent="12ae3frHGvqBDCMUcqmj-34" vertex="1">
          <mxGeometry x="153.5" y="168" width="143" height="19" as="geometry" />
        </mxCell>
        <mxCell id="12ae3frHGvqBDCMUcqmj-46" style="rounded=1;orthogonalLoop=1;jettySize=auto;html=1;exitX=0.985;exitY=0.985;exitDx=0;exitDy=0;exitPerimeter=0;entryX=0;entryY=0.5;entryDx=0;entryDy=0;entryPerimeter=0;strokeWidth=4;strokeColor=#468CAA;endArrow=none;endFill=0;" parent="1" source="12ae3frHGvqBDCMUcqmj-22" target="12ae3frHGvqBDCMUcqmj-40" edge="1">
          <mxGeometry relative="1" as="geometry" />
        </mxCell>
        <mxCell id="12ae3frHGvqBDCMUcqmj-47" style="rounded=1;orthogonalLoop=1;jettySize=auto;html=1;strokeColor=#468CAA;strokeWidth=4;endArrow=none;endFill=0;exitX=0.98;exitY=0.5;exitDx=0;exitDy=0;exitPerimeter=0;elbow=vertical;" parent="1" source="FHWAyMyx4tsviVWadhPC-7" target="12ae3frHGvqBDCMUcqmj-18" edge="1">
          <mxGeometry relative="1" as="geometry">
            <mxPoint x="560" y="1910" as="sourcePoint" />
          </mxGeometry>
        </mxCell>
        <mxCell id="12ae3frHGvqBDCMUcqmj-49" value="&lt;p style=&quot;margin-top: 0pt; margin-bottom: 0pt; margin-left: 0in; direction: ltr; unicode-bidi: embed; word-break: normal; font-size: 23px;&quot;&gt;&lt;/p&gt;&lt;p style=&quot;margin-top: 0pt; margin-bottom: 0pt; margin-left: 0in; direction: ltr; unicode-bidi: embed; word-break: normal;&quot;&gt;&lt;span style=&quot;background-color: initial; font-size: 18pt; color: rgb(0, 0, 0);&quot;&gt;林口&lt;/span&gt;&lt;br&gt;&lt;/p&gt;" style="shape=mxgraph.cisco.storage.cloud;html=1;dashed=0;strokeColor=#23445D;fillColor=#ffffff;strokeWidth=2;fontFamily=Helvetica;fontSize=24;fontColor=#23445D;align=center;fontStyle=1" parent="1" vertex="1">
          <mxGeometry x="-90" y="1897" width="190" height="125" as="geometry" />
        </mxCell>
        <mxCell id="12ae3frHGvqBDCMUcqmj-50" style="rounded=1;orthogonalLoop=1;jettySize=auto;html=1;entryX=0.98;entryY=0.5;entryDx=0;entryDy=0;entryPerimeter=0;strokeColor=#468CAA;strokeWidth=4;endArrow=none;endFill=0;elbow=vertical;" parent="1" edge="1" source="12ae3frHGvqBDCMUcqmj-18">
          <mxGeometry relative="1" as="geometry">
            <mxPoint x="536.7300000000005" y="2204" as="sourcePoint" />
            <mxPoint x="96.20000000000027" y="1959.5000000000002" as="targetPoint" />
          </mxGeometry>
        </mxCell>
        <mxCell id="12ae3frHGvqBDCMUcqmj-51" value="&lt;p style=&quot;margin-top: 0pt; margin-bottom: 0pt; margin-left: 0in; direction: ltr; unicode-bidi: embed; word-break: normal; font-size: 24px;&quot;&gt;&lt;br&gt;&lt;/p&gt;" style="text;html=1;align=center;verticalAlign=middle;resizable=0;points=[];autosize=1;strokeColor=none;fillColor=none;" parent="1" vertex="1">
          <mxGeometry x="744.5" y="2380" width="20" height="40" as="geometry" />
        </mxCell>
        <mxCell id="12ae3frHGvqBDCMUcqmj-52" style="rounded=1;orthogonalLoop=1;jettySize=auto;html=1;exitX=0;exitY=0.5;exitDx=0;exitDy=0;exitPerimeter=0;strokeColor=#97D077;strokeWidth=4;endArrow=none;endFill=0;" parent="1" source="12ae3frHGvqBDCMUcqmj-7" target="12ae3frHGvqBDCMUcqmj-64" edge="1">
          <mxGeometry relative="1" as="geometry" />
        </mxCell>
        <mxCell id="12ae3frHGvqBDCMUcqmj-53" style="rounded=1;orthogonalLoop=1;jettySize=auto;html=1;exitX=0.98;exitY=0.5;exitDx=0;exitDy=0;exitPerimeter=0;strokeColor=#468CAA;strokeWidth=4;endArrow=none;endFill=0;" parent="1" source="12ae3frHGvqBDCMUcqmj-54" target="12ae3frHGvqBDCMUcqmj-18" edge="1">
          <mxGeometry relative="1" as="geometry">
            <mxPoint x="430" y="2190" as="targetPoint" />
          </mxGeometry>
        </mxCell>
        <mxCell id="12ae3frHGvqBDCMUcqmj-54" value="&lt;p style=&quot;margin-top: 0pt; margin-bottom: 0pt; margin-left: 0in; direction: ltr; unicode-bidi: embed; word-break: normal; font-size: 23px;&quot;&gt;&lt;/p&gt;&lt;p style=&quot;border-color: var(--border-color); color: rgb(0, 0, 0); font-weight: 400; margin-top: 0pt; margin-bottom: 0pt; margin-left: 0in; direction: ltr; unicode-bidi: embed; word-break: normal;&quot;&gt;&lt;font style=&quot;border-color: var(--border-color);&quot;&gt;VX1200&lt;/font&gt;&lt;/p&gt;&lt;p style=&quot;border-color: var(--border-color); color: rgb(0, 0, 0); font-weight: 400; margin-top: 0pt; margin-bottom: 0pt; margin-left: 0in; direction: ltr; unicode-bidi: embed; word-break: normal;&quot;&gt;&lt;font style=&quot;border-color: var(--border-color);&quot;&gt;Lync to&amp;nbsp;&lt;span style=&quot;border-color: var(--border-color); font-family: 微軟正黑體;&quot;&gt;手機、市話&lt;/span&gt;&lt;/font&gt;&lt;/p&gt;" style="shape=mxgraph.cisco.storage.cloud;html=1;dashed=0;strokeColor=#23445D;fillColor=#ffffff;strokeWidth=2;fontFamily=Helvetica;fontSize=24;fontColor=#23445D;align=center;fontStyle=1" parent="1" vertex="1">
          <mxGeometry x="-172" y="2032.5" width="272" height="125" as="geometry" />
        </mxCell>
        <mxCell id="12ae3frHGvqBDCMUcqmj-55" value="" style="group" parent="1" vertex="1" connectable="0">
          <mxGeometry x="678" y="2380" width="124.5" height="83" as="geometry" />
        </mxCell>
        <mxCell id="12ae3frHGvqBDCMUcqmj-56" value="" style="shape=mxgraph.cisco.switches.workgroup_switch;sketch=0;html=1;pointerEvents=1;dashed=0;fillColor=#036897;strokeColor=#ffffff;strokeWidth=2;verticalLabelPosition=bottom;verticalAlign=top;align=center;outlineConnect=0;aspect=fixed;" parent="12ae3frHGvqBDCMUcqmj-55" vertex="1">
          <mxGeometry x="12.25" width="100" height="49.5" as="geometry" />
        </mxCell>
        <mxCell id="12ae3frHGvqBDCMUcqmj-58" style="rounded=1;orthogonalLoop=1;jettySize=auto;html=1;strokeColor=#468CAA;strokeWidth=4;endArrow=none;endFill=0;" parent="1" source="12ae3frHGvqBDCMUcqmj-56" target="12ae3frHGvqBDCMUcqmj-18" edge="1">
          <mxGeometry relative="1" as="geometry" />
        </mxCell>
        <mxCell id="12ae3frHGvqBDCMUcqmj-59" value="" style="group" parent="1" vertex="1" connectable="0">
          <mxGeometry x="660" y="2507" width="160" height="180" as="geometry" />
        </mxCell>
        <mxCell id="12ae3frHGvqBDCMUcqmj-60" value="" style="rounded=1;whiteSpace=wrap;html=1;strokeColor=none;fillColor=#BAC8D3;fontSize=24;fontColor=#23445D;align=center;opacity=60;" parent="12ae3frHGvqBDCMUcqmj-59" vertex="1">
          <mxGeometry width="160" height="180" as="geometry" />
        </mxCell>
        <mxCell id="12ae3frHGvqBDCMUcqmj-61" value="&lt;font color=&quot;#23445d&quot;&gt;&amp;nbsp;HQ User Group&lt;/font&gt;" style="rounded=1;whiteSpace=wrap;html=1;strokeColor=none;fillColor=none;fontSize=14;fontColor=#742B21;align=center;fontStyle=1" parent="12ae3frHGvqBDCMUcqmj-59" vertex="1">
          <mxGeometry x="11.75" y="20" width="143" height="19" as="geometry" />
        </mxCell>
        <mxCell id="12ae3frHGvqBDCMUcqmj-62" value="" style="shape=mxgraph.cisco.computers_and_peripherals.macintosh;sketch=0;html=1;pointerEvents=1;dashed=0;fillColor=#036897;strokeColor=#ffffff;strokeWidth=2;verticalLabelPosition=bottom;verticalAlign=top;align=center;outlineConnect=0;" parent="12ae3frHGvqBDCMUcqmj-59" vertex="1">
          <mxGeometry x="33.75" y="70" width="99" height="64" as="geometry" />
        </mxCell>
        <mxCell id="12ae3frHGvqBDCMUcqmj-66" style="rounded=1;orthogonalLoop=1;jettySize=auto;html=1;exitX=0.98;exitY=0.5;exitDx=0;exitDy=0;exitPerimeter=0;entryX=0;entryY=0.5;entryDx=0;entryDy=0;entryPerimeter=0;strokeColor=#468CAA;strokeWidth=4;endArrow=none;endFill=0;" parent="1" source="12ae3frHGvqBDCMUcqmj-67" target="12ae3frHGvqBDCMUcqmj-15" edge="1">
          <mxGeometry relative="1" as="geometry" />
        </mxCell>
        <mxCell id="12ae3frHGvqBDCMUcqmj-67" value="&lt;p style=&quot;margin-top: 0pt; margin-bottom: 0pt; margin-left: 0in; direction: ltr; unicode-bidi: embed; word-break: normal; font-size: 23px;&quot;&gt;&lt;/p&gt;&lt;p style=&quot;margin-top: 0pt; margin-bottom: 0pt; margin-left: 0in; direction: ltr; unicode-bidi: embed; word-break: normal;&quot;&gt;&lt;span style=&quot;font-size: 18pt; color: rgb(0, 0, 0); background-color: initial;&quot;&gt;美國&lt;/span&gt;&lt;br&gt;&lt;/p&gt;&lt;p style=&quot;margin-top: 0pt; margin-bottom: 0pt; margin-left: 0in; direction: ltr; unicode-bidi: embed; word-break: normal;&quot;&gt;&lt;span style=&quot;color: rgb(0, 0, 0); font-size: 18pt; background-color: initial;&quot;&gt;福永&lt;/span&gt;&lt;font color=&quot;#000000&quot;&gt;&lt;br&gt;&lt;/font&gt;&lt;/p&gt;" style="shape=mxgraph.cisco.storage.cloud;html=1;dashed=0;strokeColor=#23445D;fillColor=#ffffff;strokeWidth=2;fontFamily=Helvetica;fontSize=24;fontColor=#23445D;align=center;fontStyle=1" parent="1" vertex="1">
          <mxGeometry x="-90" y="2178.25" width="190" height="141.5" as="geometry" />
        </mxCell>
        <mxCell id="12ae3frHGvqBDCMUcqmj-68" style="rounded=1;orthogonalLoop=1;jettySize=auto;html=1;exitX=0.98;exitY=0.5;exitDx=0;exitDy=0;exitPerimeter=0;endArrow=none;endFill=0;strokeColor=#468CAA;strokeWidth=4;" parent="1" source="12ae3frHGvqBDCMUcqmj-69" target="12ae3frHGvqBDCMUcqmj-27" edge="1">
          <mxGeometry relative="1" as="geometry" />
        </mxCell>
        <mxCell id="12ae3frHGvqBDCMUcqmj-69" value="&lt;p style=&quot;margin-top: 0pt; margin-bottom: 0pt; margin-left: 0in; direction: ltr; unicode-bidi: embed; word-break: normal; font-size: 23px;&quot;&gt;&lt;/p&gt;&lt;p style=&quot;margin-top: 0pt; margin-bottom: 0pt; margin-left: 0in; direction: ltr; unicode-bidi: embed; word-break: normal;&quot;&gt;&lt;font style=&quot;background-color: initial;&quot; color=&quot;#000000&quot;&gt;&lt;span style=&quot;font-size: 18pt; font-family: 微軟正黑體;&quot;&gt;浩興昆山&lt;/span&gt;&lt;/font&gt;&lt;br&gt;&lt;/p&gt;&lt;p style=&quot;margin-top: 0pt; margin-bottom: 0pt; margin-left: 0in; direction: ltr; unicode-bidi: embed; word-break: normal;&quot;&gt;&lt;span style=&quot;font-family: 微軟正黑體; font-size: 18pt; color: rgb(0, 0, 0); background-color: initial;&quot;&gt;浩興深圳&lt;/span&gt;&lt;/p&gt;&lt;p style=&quot;margin-top: 0pt; margin-bottom: 0pt; margin-left: 0in; direction: ltr; unicode-bidi: embed; word-break: normal;&quot;&gt;&lt;span style=&quot;color: rgb(0, 0, 0); background-color: initial; font-size: 18pt; font-family: 微軟正黑體;&quot;&gt;深圳耕興&lt;/span&gt;&lt;br&gt;&lt;/p&gt;" style="shape=mxgraph.cisco.storage.cloud;html=1;dashed=0;strokeColor=#23445D;fillColor=#ffffff;strokeWidth=2;fontFamily=Helvetica;fontSize=24;fontColor=#23445D;align=center;fontStyle=1" parent="1" vertex="1">
          <mxGeometry x="-110" y="2472.73" width="210" height="156.97" as="geometry" />
        </mxCell>
        <mxCell id="12ae3frHGvqBDCMUcqmj-72" value="&lt;p style=&quot;margin-top: 0pt; margin-bottom: 0pt; margin-left: 0in; direction: ltr; unicode-bidi: embed; word-break: normal; font-size: 23px;&quot;&gt;&lt;/p&gt;&lt;p style=&quot;margin-top: 0pt; margin-bottom: 0pt; margin-left: 0in; direction: ltr; unicode-bidi: embed; word-break: normal;&quot;&gt;&lt;font color=&quot;#000000&quot;&gt;Internet&lt;/font&gt;&lt;/p&gt;" style="shape=mxgraph.cisco.storage.cloud;html=1;dashed=0;strokeColor=#23445D;fillColor=#ffffff;strokeWidth=2;fontFamily=Helvetica;fontSize=24;fontColor=#23445D;align=center;fontStyle=1" parent="1" vertex="1">
          <mxGeometry x="2030" y="1635" width="190" height="125" as="geometry" />
        </mxCell>
        <mxCell id="12ae3frHGvqBDCMUcqmj-77" style="rounded=1;orthogonalLoop=1;jettySize=auto;html=1;endArrow=none;endFill=0;strokeColor=#468CAA;strokeWidth=4;" parent="1" source="ebNL-Uzspq8U-VdhPVA--14" target="12ae3frHGvqBDCMUcqmj-72" edge="1">
          <mxGeometry relative="1" as="geometry">
            <mxPoint x="2290" y="1910" as="sourcePoint" />
          </mxGeometry>
        </mxCell>
        <mxCell id="eVyLxdBei2JVoM4hP0GL-5" style="rounded=1;orthogonalLoop=1;jettySize=auto;html=1;strokeColor=#97D077;strokeWidth=4;endArrow=none;endFill=0;" parent="1" source="eVyLxdBei2JVoM4hP0GL-3" target="12ae3frHGvqBDCMUcqmj-18" edge="1">
          <mxGeometry relative="1" as="geometry">
            <mxPoint x="308" y="2419" as="sourcePoint" />
            <mxPoint x="500" y="2310" as="targetPoint" />
          </mxGeometry>
        </mxCell>
        <mxCell id="eVyLxdBei2JVoM4hP0GL-6" style="rounded=1;orthogonalLoop=1;jettySize=auto;html=1;exitX=0.98;exitY=0.5;exitDx=0;exitDy=0;exitPerimeter=0;entryX=0;entryY=0.5;entryDx=0;entryDy=0;entryPerimeter=0;endArrow=none;endFill=0;strokeColor=#97D077;strokeWidth=4;" parent="1" source="12ae3frHGvqBDCMUcqmj-69" target="eVyLxdBei2JVoM4hP0GL-3" edge="1">
          <mxGeometry relative="1" as="geometry">
            <mxPoint x="89" y="2354" as="sourcePoint" />
            <mxPoint x="222" y="2347" as="targetPoint" />
          </mxGeometry>
        </mxCell>
        <mxCell id="eVyLxdBei2JVoM4hP0GL-11" value="" style="group" parent="1" vertex="1" connectable="0">
          <mxGeometry x="1992" y="1495" width="220" height="40" as="geometry" />
        </mxCell>
        <mxCell id="eVyLxdBei2JVoM4hP0GL-7" style="rounded=1;orthogonalLoop=1;jettySize=auto;html=1;entryX=0;entryY=0.5;entryDx=0;entryDy=0;entryPerimeter=0;endArrow=none;endFill=0;strokeColor=#97D077;strokeWidth=4;" parent="eVyLxdBei2JVoM4hP0GL-11" edge="1">
          <mxGeometry relative="1" as="geometry">
            <mxPoint y="21" as="sourcePoint" />
            <mxPoint x="126" y="21" as="targetPoint" />
          </mxGeometry>
        </mxCell>
        <mxCell id="eVyLxdBei2JVoM4hP0GL-8" value="&lt;font style=&quot;font-size: 18px;&quot;&gt;備援線路&lt;/font&gt;" style="text;html=1;align=center;verticalAlign=middle;resizable=0;points=[];autosize=1;strokeColor=none;fillColor=none;" parent="eVyLxdBei2JVoM4hP0GL-11" vertex="1">
          <mxGeometry x="120" width="100" height="40" as="geometry" />
        </mxCell>
        <mxCell id="eVyLxdBei2JVoM4hP0GL-12" value="" style="group" parent="1" vertex="1" connectable="0">
          <mxGeometry x="1992" y="1450" width="220" height="40" as="geometry" />
        </mxCell>
        <mxCell id="eVyLxdBei2JVoM4hP0GL-13" style="rounded=1;orthogonalLoop=1;jettySize=auto;html=1;entryX=0;entryY=0.5;entryDx=0;entryDy=0;entryPerimeter=0;endArrow=none;endFill=0;strokeColor=#468CAA;strokeWidth=4;" parent="eVyLxdBei2JVoM4hP0GL-12" edge="1">
          <mxGeometry relative="1" as="geometry">
            <mxPoint y="21" as="sourcePoint" />
            <mxPoint x="126" y="21" as="targetPoint" />
          </mxGeometry>
        </mxCell>
        <mxCell id="eVyLxdBei2JVoM4hP0GL-14" value="&lt;font style=&quot;font-size: 18px;&quot;&gt;主要線路&lt;/font&gt;" style="text;html=1;align=center;verticalAlign=middle;resizable=0;points=[];autosize=1;strokeColor=none;fillColor=none;" parent="eVyLxdBei2JVoM4hP0GL-12" vertex="1">
          <mxGeometry x="120" width="100" height="40" as="geometry" />
        </mxCell>
        <mxCell id="FHWAyMyx4tsviVWadhPC-7" value="&lt;p style=&quot;margin-top: 0pt; margin-bottom: 0pt; margin-left: 0in; direction: ltr; unicode-bidi: embed; word-break: normal; font-size: 23px;&quot;&gt;&lt;/p&gt;&lt;p style=&quot;margin-top: 0pt; margin-bottom: 0pt; margin-left: 0in; direction: ltr; unicode-bidi: embed; word-break: normal;&quot;&gt;&lt;font color=&quot;#000000&quot;&gt;華亞&lt;/font&gt;&lt;/p&gt;" style="shape=mxgraph.cisco.storage.cloud;html=1;dashed=0;strokeColor=#23445D;fillColor=#ffffff;strokeWidth=2;fontFamily=Helvetica;fontSize=24;fontColor=#23445D;align=center;fontStyle=1" parent="1" vertex="1">
          <mxGeometry x="-95" y="1760" width="190" height="125" as="geometry" />
        </mxCell>
        <mxCell id="FHWAyMyx4tsviVWadhPC-8" value="&lt;p style=&quot;margin-top: 0pt; margin-bottom: 0pt; margin-left: 0in; direction: ltr; unicode-bidi: embed; word-break: normal; font-size: 23px;&quot;&gt;&lt;/p&gt;&lt;p style=&quot;margin-top: 0pt; margin-bottom: 0pt; margin-left: 0in; direction: ltr; unicode-bidi: embed; word-break: normal;&quot;&gt;&lt;font color=&quot;#000000&quot;&gt;中和&lt;/font&gt;&lt;/p&gt;" style="shape=mxgraph.cisco.storage.cloud;html=1;dashed=0;strokeColor=#23445D;fillColor=#ffffff;strokeWidth=2;fontFamily=Helvetica;fontSize=24;fontColor=#23445D;align=center;fontStyle=1" parent="1" vertex="1">
          <mxGeometry x="-95" y="1630" width="190" height="125" as="geometry" />
        </mxCell>
        <mxCell id="FHWAyMyx4tsviVWadhPC-9" value="&lt;p style=&quot;margin-top: 0pt; margin-bottom: 0pt; margin-left: 0in; direction: ltr; unicode-bidi: embed; word-break: normal; font-size: 23px;&quot;&gt;&lt;/p&gt;&lt;p style=&quot;margin-top: 0pt; margin-bottom: 0pt; margin-left: 0in; direction: ltr; unicode-bidi: embed; word-break: normal;&quot;&gt;&lt;span style=&quot;background-color: initial; font-size: 18pt; color: rgb(0, 0, 0);&quot;&gt;文三三街&lt;/span&gt;&lt;br&gt;&lt;/p&gt;" style="shape=mxgraph.cisco.storage.cloud;html=1;dashed=0;strokeColor=#23445D;fillColor=#ffffff;strokeWidth=2;fontFamily=Helvetica;fontSize=24;fontColor=#23445D;align=center;fontStyle=1" parent="1" vertex="1">
          <mxGeometry x="-95" y="1505" width="190" height="125" as="geometry" />
        </mxCell>
        <mxCell id="FHWAyMyx4tsviVWadhPC-10" value="&lt;p style=&quot;margin-top: 0pt; margin-bottom: 0pt; margin-left: 0in; direction: ltr; unicode-bidi: embed; word-break: normal; font-size: 23px;&quot;&gt;&lt;/p&gt;&lt;p style=&quot;margin-top: 0pt; margin-bottom: 0pt; margin-left: 0in; direction: ltr; unicode-bidi: embed; word-break: normal;&quot;&gt;&lt;span style=&quot;background-color: initial; font-size: 18pt; color: rgb(0, 0, 0);&quot;&gt;新竹&lt;/span&gt;&lt;br&gt;&lt;/p&gt;" style="shape=mxgraph.cisco.storage.cloud;html=1;dashed=0;strokeColor=#23445D;fillColor=#ffffff;strokeWidth=2;fontFamily=Helvetica;fontSize=24;fontColor=#23445D;align=center;fontStyle=1" parent="1" vertex="1">
          <mxGeometry x="-95" y="1380" width="190" height="125" as="geometry" />
        </mxCell>
        <mxCell id="FHWAyMyx4tsviVWadhPC-11" style="rounded=1;orthogonalLoop=1;jettySize=auto;html=1;strokeColor=#468CAA;strokeWidth=4;endArrow=none;endFill=0;exitX=0.98;exitY=0.5;exitDx=0;exitDy=0;exitPerimeter=0;elbow=vertical;" parent="1" source="FHWAyMyx4tsviVWadhPC-8" target="12ae3frHGvqBDCMUcqmj-18" edge="1">
          <mxGeometry relative="1" as="geometry">
            <mxPoint x="480" y="1640" as="sourcePoint" />
            <mxPoint x="620" y="2196" as="targetPoint" />
          </mxGeometry>
        </mxCell>
        <mxCell id="FHWAyMyx4tsviVWadhPC-12" style="rounded=1;orthogonalLoop=1;jettySize=auto;html=1;exitX=0.98;exitY=0.5;exitDx=0;exitDy=0;exitPerimeter=0;strokeColor=#468CAA;strokeWidth=4;endArrow=none;endFill=0;elbow=vertical;" parent="1" source="FHWAyMyx4tsviVWadhPC-9" target="12ae3frHGvqBDCMUcqmj-18" edge="1">
          <mxGeometry relative="1" as="geometry">
            <mxPoint x="820.7999999999997" y="1863.0000000000002" as="sourcePoint" />
            <mxPoint x="680" y="2204" as="targetPoint" />
          </mxGeometry>
        </mxCell>
        <mxCell id="FHWAyMyx4tsviVWadhPC-13" style="rounded=1;orthogonalLoop=1;jettySize=auto;html=1;exitX=0.98;exitY=0.5;exitDx=0;exitDy=0;exitPerimeter=0;strokeColor=#468CAA;strokeWidth=4;endArrow=none;endFill=0;elbow=vertical;jumpStyle=none;" parent="1" source="FHWAyMyx4tsviVWadhPC-10" target="12ae3frHGvqBDCMUcqmj-18" edge="1">
          <mxGeometry relative="1" as="geometry">
            <mxPoint x="866.9999999999998" y="1870.0000000000002" as="sourcePoint" />
            <mxPoint x="726.2" y="2211" as="targetPoint" />
          </mxGeometry>
        </mxCell>
        <mxCell id="ebNL-Uzspq8U-VdhPVA--13" value="" style="group" parent="1" vertex="1" connectable="0">
          <mxGeometry x="1810" y="1602.5" width="105" height="112" as="geometry" />
        </mxCell>
        <mxCell id="ebNL-Uzspq8U-VdhPVA--14" value="" style="sketch=0;points=[[0.015,0.015,0],[0.985,0.015,0],[0.985,0.985,0],[0.015,0.985,0],[0.25,0,0],[0.5,0,0],[0.75,0,0],[1,0.25,0],[1,0.5,0],[1,0.75,0],[0.75,1,0],[0.5,1,0],[0.25,1,0],[0,0.75,0],[0,0.5,0],[0,0.25,0]];verticalLabelPosition=bottom;html=1;verticalAlign=top;aspect=fixed;align=center;pointerEvents=1;shape=mxgraph.cisco19.rect;prIcon=firewall;fillColor=#FAFAFA;strokeColor=#005073;container=0;" parent="ebNL-Uzspq8U-VdhPVA--13" vertex="1">
          <mxGeometry x="0.5" width="102.4" height="80" as="geometry" />
        </mxCell>
        <mxCell id="ebNL-Uzspq8U-VdhPVA--16" value="" style="group" parent="1" vertex="1" connectable="0">
          <mxGeometry x="1090" y="1602.5" width="105" height="112" as="geometry" />
        </mxCell>
        <mxCell id="ebNL-Uzspq8U-VdhPVA--17" value="" style="sketch=0;points=[[0.015,0.015,0],[0.985,0.015,0],[0.985,0.985,0],[0.015,0.985,0],[0.25,0,0],[0.5,0,0],[0.75,0,0],[1,0.25,0],[1,0.5,0],[1,0.75,0],[0.75,1,0],[0.5,1,0],[0.25,1,0],[0,0.75,0],[0,0.5,0],[0,0.25,0]];verticalLabelPosition=bottom;html=1;verticalAlign=top;aspect=fixed;align=center;pointerEvents=1;shape=mxgraph.cisco19.rect;prIcon=firewall;fillColor=#FAFAFA;strokeColor=#005073;container=0;" parent="ebNL-Uzspq8U-VdhPVA--16" vertex="1">
          <mxGeometry x="0.5" width="102.4" height="80" as="geometry" />
        </mxCell>
        <mxCell id="FHWAyMyx4tsviVWadhPC-1" value="&lt;p style=&quot;margin-top: 0pt; margin-bottom: 0pt; margin-left: 0in; direction: ltr; unicode-bidi: embed; word-break: normal; font-size: 23px;&quot;&gt;&lt;/p&gt;&lt;p style=&quot;margin-top: 0pt; margin-bottom: 0pt; margin-left: 0in; direction: ltr; unicode-bidi: embed; word-break: normal;&quot;&gt;&lt;span style=&quot;color: rgb(0, 0, 0); background-color: initial;&quot;&gt;東莞&lt;/span&gt;&lt;br&gt;&lt;/p&gt;" style="shape=mxgraph.cisco.storage.cloud;html=1;dashed=0;strokeColor=#23445D;fillColor=#ffffff;strokeWidth=2;fontFamily=Helvetica;fontSize=24;fontColor=#23445D;align=center;fontStyle=1" parent="1" vertex="1">
          <mxGeometry x="-90" y="2335" width="190" height="125" as="geometry" />
        </mxCell>
        <mxCell id="ebNL-Uzspq8U-VdhPVA--26" style="rounded=1;orthogonalLoop=1;jettySize=auto;html=1;endArrow=none;endFill=0;strokeColor=#468CAA;strokeWidth=4;entryX=0.015;entryY=0.985;entryDx=0;entryDy=0;entryPerimeter=0;exitX=0.98;exitY=0.5;exitDx=0;exitDy=0;exitPerimeter=0;" parent="1" source="FHWAyMyx4tsviVWadhPC-1" target="12ae3frHGvqBDCMUcqmj-15" edge="1">
          <mxGeometry relative="1" as="geometry">
            <mxPoint x="1880" y="1640" as="sourcePoint" />
            <mxPoint x="2105" y="1640" as="targetPoint" />
          </mxGeometry>
        </mxCell>
        <mxCell id="GZBGt0tV6EPpzuoUCOiD-1" value="" style="group" vertex="1" connectable="0" parent="1">
          <mxGeometry x="1090" y="1730" width="105" height="112" as="geometry" />
        </mxCell>
        <mxCell id="GZBGt0tV6EPpzuoUCOiD-2" value="" style="sketch=0;points=[[0.015,0.015,0],[0.985,0.015,0],[0.985,0.985,0],[0.015,0.985,0],[0.25,0,0],[0.5,0,0],[0.75,0,0],[1,0.25,0],[1,0.5,0],[1,0.75,0],[0.75,1,0],[0.5,1,0],[0.25,1,0],[0,0.75,0],[0,0.5,0],[0,0.25,0]];verticalLabelPosition=bottom;html=1;verticalAlign=top;aspect=fixed;align=center;pointerEvents=1;shape=mxgraph.cisco19.rect;prIcon=firewall;fillColor=#FAFAFA;strokeColor=#005073;container=0;" vertex="1" parent="GZBGt0tV6EPpzuoUCOiD-1">
          <mxGeometry x="0.5" width="102.4" height="80" as="geometry" />
        </mxCell>
        <mxCell id="12ae3frHGvqBDCMUcqmj-64" value="" style="shape=mxgraph.cisco.switches.layer_3_switch;sketch=0;html=1;pointerEvents=1;dashed=0;fillColor=#036897;strokeColor=#ffffff;strokeWidth=2;verticalLabelPosition=bottom;verticalAlign=top;align=center;outlineConnect=0;aspect=fixed;points=[[0,0.5,0,0,0],[0,1,0,0,0],[0.08,0.05,0,0,0],[0.5,0,0,0,0],[0.5,1,0,0,0],[0.76,0,0,0,0],[0.95,0.94,0,0,0],[1,0,0,0,0],[1,0.5,0,0,0]];" parent="1" vertex="1">
          <mxGeometry x="853.5" y="2204" width="89" height="89" as="geometry" />
        </mxCell>
        <mxCell id="GZBGt0tV6EPpzuoUCOiD-10" value="" style="group" vertex="1" connectable="0" parent="1">
          <mxGeometry x="1810" y="1730" width="105" height="112" as="geometry" />
        </mxCell>
        <mxCell id="GZBGt0tV6EPpzuoUCOiD-11" value="" style="sketch=0;points=[[0.015,0.015,0],[0.985,0.015,0],[0.985,0.985,0],[0.015,0.985,0],[0.25,0,0],[0.5,0,0],[0.75,0,0],[1,0.25,0],[1,0.5,0],[1,0.75,0],[0.75,1,0],[0.5,1,0],[0.25,1,0],[0,0.75,0],[0,0.5,0],[0,0.25,0]];verticalLabelPosition=bottom;html=1;verticalAlign=top;aspect=fixed;align=center;pointerEvents=1;shape=mxgraph.cisco19.rect;prIcon=firewall;fillColor=#FAFAFA;strokeColor=#005073;container=0;" vertex="1" parent="GZBGt0tV6EPpzuoUCOiD-10">
          <mxGeometry x="0.5" width="102.4" height="80" as="geometry" />
        </mxCell>
        <mxCell id="GZBGt0tV6EPpzuoUCOiD-14" style="rounded=1;orthogonalLoop=1;jettySize=auto;html=1;strokeColor=#97D077;strokeWidth=4;endArrow=none;endFill=0;elbow=vertical;" edge="1" parent="1" source="GZBGt0tV6EPpzuoUCOiD-11" target="12ae3frHGvqBDCMUcqmj-72">
          <mxGeometry relative="1" as="geometry">
            <mxPoint x="1939" y="1980" as="sourcePoint" />
            <mxPoint x="2060" y="2108" as="targetPoint" />
          </mxGeometry>
        </mxCell>
        <mxCell id="GZBGt0tV6EPpzuoUCOiD-20" style="rounded=1;orthogonalLoop=1;jettySize=auto;html=1;strokeWidth=4;strokeColor=#468CAA;endArrow=none;endFill=0;" edge="1" parent="1" source="GZBGt0tV6EPpzuoUCOiD-25" target="ebNL-Uzspq8U-VdhPVA--14">
          <mxGeometry relative="1" as="geometry">
            <mxPoint x="1210" y="1590" as="sourcePoint" />
            <mxPoint x="1280" y="1710" as="targetPoint" />
          </mxGeometry>
        </mxCell>
        <mxCell id="GZBGt0tV6EPpzuoUCOiD-21" style="rounded=1;orthogonalLoop=1;jettySize=auto;html=1;endArrow=none;endFill=0;strokeWidth=4;strokeColor=#97D077;" edge="1" parent="1" source="GZBGt0tV6EPpzuoUCOiD-32" target="GZBGt0tV6EPpzuoUCOiD-2">
          <mxGeometry relative="1" as="geometry">
            <mxPoint x="1450" y="1750" as="sourcePoint" />
            <mxPoint x="1220" y="1800" as="targetPoint" />
          </mxGeometry>
        </mxCell>
        <mxCell id="GZBGt0tV6EPpzuoUCOiD-22" style="rounded=1;orthogonalLoop=1;jettySize=auto;html=1;endArrow=none;endFill=0;strokeWidth=4;strokeColor=#468CAA;" edge="1" parent="1" source="GZBGt0tV6EPpzuoUCOiD-25" target="ebNL-Uzspq8U-VdhPVA--17">
          <mxGeometry relative="1" as="geometry">
            <mxPoint x="1695" y="1965" as="sourcePoint" />
            <mxPoint x="1173" y="1835" as="targetPoint" />
          </mxGeometry>
        </mxCell>
        <mxCell id="GZBGt0tV6EPpzuoUCOiD-23" style="rounded=1;orthogonalLoop=1;jettySize=auto;html=1;strokeWidth=4;strokeColor=#97D077;endArrow=none;endFill=0;" edge="1" parent="1" source="GZBGt0tV6EPpzuoUCOiD-32" target="GZBGt0tV6EPpzuoUCOiD-11">
          <mxGeometry relative="1" as="geometry">
            <mxPoint x="1550" y="1770" as="sourcePoint" />
            <mxPoint x="1821" y="1653" as="targetPoint" />
          </mxGeometry>
        </mxCell>
        <mxCell id="GZBGt0tV6EPpzuoUCOiD-25" value="" style="shape=mxgraph.cisco.routers.router;sketch=0;html=1;pointerEvents=1;dashed=0;fillColor=#036897;strokeColor=#ffffff;strokeWidth=2;verticalLabelPosition=bottom;verticalAlign=top;align=center;outlineConnect=0;aspect=fixed;container=0;" vertex="1" parent="1">
          <mxGeometry x="1458" y="1613.28" width="86" height="58.44" as="geometry" />
        </mxCell>
        <mxCell id="GZBGt0tV6EPpzuoUCOiD-32" value="" style="shape=mxgraph.cisco.routers.router;sketch=0;html=1;pointerEvents=1;dashed=0;fillColor=#036897;strokeColor=#ffffff;strokeWidth=2;verticalLabelPosition=bottom;verticalAlign=top;align=center;outlineConnect=0;aspect=fixed;container=0;" vertex="1" parent="1">
          <mxGeometry x="1458" y="1740.78" width="86" height="58.44" as="geometry" />
        </mxCell>
        <mxCell id="GZBGt0tV6EPpzuoUCOiD-33" style="rounded=1;orthogonalLoop=1;jettySize=auto;html=1;endArrow=none;endFill=0;strokeWidth=4;strokeColor=#97D077;" edge="1" parent="1" source="GZBGt0tV6EPpzuoUCOiD-32" target="ebNL-Uzspq8U-VdhPVA--17">
          <mxGeometry relative="1" as="geometry">
            <mxPoint x="1468" y="1653" as="sourcePoint" />
            <mxPoint x="1203" y="1653" as="targetPoint" />
          </mxGeometry>
        </mxCell>
        <mxCell id="GZBGt0tV6EPpzuoUCOiD-34" style="rounded=1;orthogonalLoop=1;jettySize=auto;html=1;strokeWidth=4;strokeColor=#97D077;endArrow=none;endFill=0;" edge="1" parent="1" source="GZBGt0tV6EPpzuoUCOiD-32" target="ebNL-Uzspq8U-VdhPVA--14">
          <mxGeometry relative="1" as="geometry">
            <mxPoint x="1554" y="1653" as="sourcePoint" />
            <mxPoint x="1821" y="1653" as="targetPoint" />
          </mxGeometry>
        </mxCell>
        <mxCell id="GZBGt0tV6EPpzuoUCOiD-35" style="rounded=1;orthogonalLoop=1;jettySize=auto;html=1;endArrow=none;endFill=0;strokeWidth=4;strokeColor=#97D077;" edge="1" parent="1" source="GZBGt0tV6EPpzuoUCOiD-25" target="GZBGt0tV6EPpzuoUCOiD-2">
          <mxGeometry relative="1" as="geometry">
            <mxPoint x="1468" y="1780" as="sourcePoint" />
            <mxPoint x="1230" y="1720" as="targetPoint" />
          </mxGeometry>
        </mxCell>
        <mxCell id="GZBGt0tV6EPpzuoUCOiD-36" style="rounded=1;orthogonalLoop=1;jettySize=auto;html=1;strokeWidth=4;strokeColor=#97D077;endArrow=none;endFill=0;" edge="1" parent="1" source="GZBGt0tV6EPpzuoUCOiD-25" target="GZBGt0tV6EPpzuoUCOiD-11">
          <mxGeometry relative="1" as="geometry">
            <mxPoint x="1554" y="1780" as="sourcePoint" />
            <mxPoint x="1821" y="1780" as="targetPoint" />
          </mxGeometry>
        </mxCell>
        <mxCell id="GZBGt0tV6EPpzuoUCOiD-37" style="rounded=1;orthogonalLoop=1;jettySize=auto;html=1;endArrow=none;endFill=0;strokeWidth=4;strokeColor=#468CAA;exitX=0.498;exitY=0.821;exitDx=0;exitDy=0;exitPerimeter=0;" edge="1" parent="1" source="ebNL-Uzspq8U-VdhPVA--7" target="GZBGt0tV6EPpzuoUCOiD-25">
          <mxGeometry relative="1" as="geometry">
            <mxPoint x="1495" y="1850" as="sourcePoint" />
            <mxPoint x="1230" y="1723" as="targetPoint" />
          </mxGeometry>
        </mxCell>
        <mxCell id="GZBGt0tV6EPpzuoUCOiD-39" style="rounded=1;orthogonalLoop=1;jettySize=auto;html=1;strokeWidth=4;strokeColor=#97D077;endArrow=none;endFill=0;entryX=0.493;entryY=0.594;entryDx=0;entryDy=0;entryPerimeter=0;" edge="1" parent="1" source="GZBGt0tV6EPpzuoUCOiD-32" target="ebNL-Uzspq8U-VdhPVA--7">
          <mxGeometry relative="1" as="geometry">
            <mxPoint x="1554" y="1780" as="sourcePoint" />
            <mxPoint x="1821" y="1780" as="targetPoint" />
          </mxGeometry>
        </mxCell>
        <mxCell id="GZBGt0tV6EPpzuoUCOiD-40" style="rounded=1;orthogonalLoop=1;jettySize=auto;html=1;endArrow=none;endFill=0;strokeColor=#FF66B3;strokeWidth=4;" edge="1" parent="1" source="ebNL-Uzspq8U-VdhPVA--14" target="GZBGt0tV6EPpzuoUCOiD-11">
          <mxGeometry relative="1" as="geometry">
            <mxPoint x="1923" y="1653" as="sourcePoint" />
            <mxPoint x="2088" y="1725" as="targetPoint" />
          </mxGeometry>
        </mxCell>
        <mxCell id="GZBGt0tV6EPpzuoUCOiD-44" style="rounded=1;orthogonalLoop=1;jettySize=auto;html=1;endArrow=none;endFill=0;strokeColor=#FF66B3;strokeWidth=4;" edge="1" parent="1" source="GZBGt0tV6EPpzuoUCOiD-25" target="GZBGt0tV6EPpzuoUCOiD-32">
          <mxGeometry relative="1" as="geometry">
            <mxPoint x="1764" y="1870" as="sourcePoint" />
            <mxPoint x="1752" y="2238" as="targetPoint" />
          </mxGeometry>
        </mxCell>
        <mxCell id="GZBGt0tV6EPpzuoUCOiD-45" style="rounded=1;orthogonalLoop=1;jettySize=auto;html=1;endArrow=none;endFill=0;strokeColor=#FF66B3;strokeWidth=4;" edge="1" parent="1" source="ebNL-Uzspq8U-VdhPVA--17" target="GZBGt0tV6EPpzuoUCOiD-2">
          <mxGeometry relative="1" as="geometry">
            <mxPoint x="1764" y="1870" as="sourcePoint" />
            <mxPoint x="1752" y="2238" as="targetPoint" />
          </mxGeometry>
        </mxCell>
        <mxCell id="GZBGt0tV6EPpzuoUCOiD-47" value="" style="group;points=[[0,0,0,0,0],[0,0.25,0,0,0],[0,0.5,0,0,0],[0,0.75,0,0,0],[0,1,0,0,0],[0.25,0,0,0,0],[0.25,1,0,0,0],[0.5,0,0,0,0],[0.5,1,0,0,0],[0.75,0,0,0,0],[0.75,1,0,0,0],[1,0,0,0,0],[1,0.25,0,0,0],[1,0.5,0,0,0],[1,0.75,0,0,0],[1,1,0,0,0]];" vertex="1" connectable="0" parent="1">
          <mxGeometry x="520" y="1936" width="110" height="120" as="geometry" />
        </mxCell>
        <mxCell id="GZBGt0tV6EPpzuoUCOiD-48" value="" style="shape=mxgraph.cisco.switches.layer_3_switch;sketch=0;html=1;pointerEvents=1;dashed=0;fillColor=#036897;strokeColor=#ffffff;strokeWidth=2;verticalLabelPosition=bottom;verticalAlign=top;align=center;outlineConnect=0;aspect=fixed;points=[[0,0.25,0,0,0],[0,0.5,0,0,0],[0,0.76,0,0,0],[0,1,0,0,0],[0.07,0,0,0,0],[0.29,0,0,0,0],[0.5,0,0,0,0],[0.5,1,0,0,0],[0.75,0,0,0,0],[0.95,0.94,0,0,0],[1,0,0,0,0],[1,0.5,0,0,0]];" vertex="1" parent="GZBGt0tV6EPpzuoUCOiD-47">
          <mxGeometry x="10.5" width="89" height="89" as="geometry" />
        </mxCell>
        <mxCell id="GZBGt0tV6EPpzuoUCOiD-52" style="rounded=1;orthogonalLoop=1;jettySize=auto;html=1;exitX=0.98;exitY=0.5;exitDx=0;exitDy=0;exitPerimeter=0;strokeColor=#97D077;strokeWidth=4;endArrow=none;endFill=0;elbow=vertical;jumpStyle=none;" edge="1" parent="1" source="FHWAyMyx4tsviVWadhPC-10" target="GZBGt0tV6EPpzuoUCOiD-48">
          <mxGeometry relative="1" as="geometry">
            <mxPoint x="101" y="1453" as="sourcePoint" />
            <mxPoint x="630" y="2214" as="targetPoint" />
          </mxGeometry>
        </mxCell>
        <mxCell id="GZBGt0tV6EPpzuoUCOiD-53" style="rounded=1;orthogonalLoop=1;jettySize=auto;html=1;exitX=0.98;exitY=0.5;exitDx=0;exitDy=0;exitPerimeter=0;strokeColor=#97D077;strokeWidth=4;endArrow=none;endFill=0;elbow=vertical;jumpStyle=arc;" edge="1" parent="1" source="FHWAyMyx4tsviVWadhPC-9" target="GZBGt0tV6EPpzuoUCOiD-48">
          <mxGeometry relative="1" as="geometry">
            <mxPoint x="101" y="1578" as="sourcePoint" />
            <mxPoint x="607" y="2214" as="targetPoint" />
          </mxGeometry>
        </mxCell>
        <mxCell id="GZBGt0tV6EPpzuoUCOiD-54" style="rounded=1;orthogonalLoop=1;jettySize=auto;html=1;exitX=0.98;exitY=0.5;exitDx=0;exitDy=0;exitPerimeter=0;strokeColor=#97D077;strokeWidth=4;endArrow=none;endFill=0;elbow=vertical;jumpStyle=arc;" edge="1" parent="1" source="FHWAyMyx4tsviVWadhPC-8" target="GZBGt0tV6EPpzuoUCOiD-48">
          <mxGeometry relative="1" as="geometry">
            <mxPoint x="101" y="1578" as="sourcePoint" />
            <mxPoint x="607" y="1926" as="targetPoint" />
          </mxGeometry>
        </mxCell>
        <mxCell id="GZBGt0tV6EPpzuoUCOiD-55" style="rounded=1;orthogonalLoop=1;jettySize=auto;html=1;exitX=0.98;exitY=0.5;exitDx=0;exitDy=0;exitPerimeter=0;strokeColor=#97D077;strokeWidth=4;endArrow=none;endFill=0;elbow=vertical;jumpStyle=arc;" edge="1" parent="1" source="FHWAyMyx4tsviVWadhPC-7" target="GZBGt0tV6EPpzuoUCOiD-48">
          <mxGeometry relative="1" as="geometry">
            <mxPoint x="101" y="1703" as="sourcePoint" />
            <mxPoint x="585" y="1926" as="targetPoint" />
          </mxGeometry>
        </mxCell>
        <mxCell id="GZBGt0tV6EPpzuoUCOiD-56" style="rounded=1;orthogonalLoop=1;jettySize=auto;html=1;exitX=0.98;exitY=0.5;exitDx=0;exitDy=0;exitPerimeter=0;strokeColor=#97D077;strokeWidth=4;endArrow=none;endFill=0;elbow=vertical;jumpStyle=arc;" edge="1" parent="1" source="12ae3frHGvqBDCMUcqmj-49" target="GZBGt0tV6EPpzuoUCOiD-48">
          <mxGeometry relative="1" as="geometry">
            <mxPoint x="101" y="1833" as="sourcePoint" />
            <mxPoint x="566" y="1926" as="targetPoint" />
          </mxGeometry>
        </mxCell>
        <mxCell id="GZBGt0tV6EPpzuoUCOiD-57" style="rounded=1;orthogonalLoop=1;jettySize=auto;html=1;exitX=0.98;exitY=0.5;exitDx=0;exitDy=0;exitPerimeter=0;strokeColor=#97D077;strokeWidth=4;endArrow=none;endFill=0;elbow=vertical;jumpStyle=arc;" edge="1" parent="1" source="12ae3frHGvqBDCMUcqmj-54" target="GZBGt0tV6EPpzuoUCOiD-48">
          <mxGeometry relative="1" as="geometry">
            <mxPoint x="106" y="1970" as="sourcePoint" />
            <mxPoint x="547" y="1946" as="targetPoint" />
          </mxGeometry>
        </mxCell>
        <mxCell id="GZBGt0tV6EPpzuoUCOiD-59" style="rounded=1;orthogonalLoop=1;jettySize=auto;html=1;exitX=1;exitY=0.5;exitDx=0;exitDy=0;exitPerimeter=0;strokeColor=#97D077;strokeWidth=4;endArrow=none;endFill=0;elbow=vertical;jumpStyle=arc;" edge="1" parent="1" source="12ae3frHGvqBDCMUcqmj-15" target="GZBGt0tV6EPpzuoUCOiD-48">
          <mxGeometry relative="1" as="geometry">
            <mxPoint x="105" y="2105" as="sourcePoint" />
            <mxPoint x="541" y="1968" as="targetPoint" />
          </mxGeometry>
        </mxCell>
        <mxCell id="GZBGt0tV6EPpzuoUCOiD-60" style="rounded=1;orthogonalLoop=1;jettySize=auto;html=1;strokeColor=#97D077;strokeWidth=4;endArrow=none;endFill=0;elbow=vertical;jumpStyle=arc;" edge="1" parent="1" source="12ae3frHGvqBDCMUcqmj-27" target="GZBGt0tV6EPpzuoUCOiD-48">
          <mxGeometry relative="1" as="geometry">
            <mxPoint x="320" y="2340" as="sourcePoint" />
            <mxPoint x="541" y="1991" as="targetPoint" />
          </mxGeometry>
        </mxCell>
        <mxCell id="GZBGt0tV6EPpzuoUCOiD-61" style="rounded=1;orthogonalLoop=1;jettySize=auto;html=1;strokeColor=#97D077;strokeWidth=4;endArrow=none;endFill=0;elbow=vertical;jumpStyle=arc;" edge="1" parent="1" source="eVyLxdBei2JVoM4hP0GL-3" target="GZBGt0tV6EPpzuoUCOiD-48">
          <mxGeometry relative="1" as="geometry">
            <mxPoint x="308" y="2419" as="sourcePoint" />
            <mxPoint x="541" y="2014" as="targetPoint" />
          </mxGeometry>
        </mxCell>
        <mxCell id="GZBGt0tV6EPpzuoUCOiD-62" style="rounded=1;orthogonalLoop=1;jettySize=auto;html=1;strokeColor=#FF66B3;strokeWidth=4;endArrow=none;endFill=0;elbow=vertical;jumpStyle=arc;" edge="1" parent="1" source="12ae3frHGvqBDCMUcqmj-18" target="GZBGt0tV6EPpzuoUCOiD-48">
          <mxGeometry relative="1" as="geometry">
            <mxPoint x="314" y="2259" as="sourcePoint" />
            <mxPoint x="541" y="1991" as="targetPoint" />
          </mxGeometry>
        </mxCell>
        <mxCell id="GZBGt0tV6EPpzuoUCOiD-64" value="" style="shape=mxgraph.cisco.switches.layer_3_switch;sketch=0;html=1;pointerEvents=1;dashed=0;fillColor=#036897;strokeColor=#ffffff;strokeWidth=2;verticalLabelPosition=bottom;verticalAlign=top;align=center;outlineConnect=0;aspect=fixed;points=[[0,0.5,0,0,0],[0,1,0,0,0],[0.08,0.05,0,0,0],[0.5,0,0,0,0],[0.5,1,0,0,0],[0.76,0,0,0,0],[0.95,0.94,0,0,0],[1,0,0,0,0],[1,0.5,0,0,0]];" vertex="1" parent="1">
          <mxGeometry x="853.5" y="1936" width="89" height="89" as="geometry" />
        </mxCell>
        <mxCell id="GZBGt0tV6EPpzuoUCOiD-65" style="rounded=1;orthogonalLoop=1;jettySize=auto;html=1;endArrow=none;endFill=0;strokeWidth=4;strokeColor=#468CAA;exitX=0;exitY=0.5;exitDx=0;exitDy=0;exitPerimeter=0;" edge="1" parent="1" source="ebNL-Uzspq8U-VdhPVA--17" target="GZBGt0tV6EPpzuoUCOiD-64">
          <mxGeometry relative="1" as="geometry">
            <mxPoint x="1001" y="1653" as="sourcePoint" />
            <mxPoint x="908" y="2214" as="targetPoint" />
          </mxGeometry>
        </mxCell>
        <mxCell id="GZBGt0tV6EPpzuoUCOiD-66" style="rounded=1;orthogonalLoop=1;jettySize=auto;html=1;exitX=0;exitY=0.5;exitDx=0;exitDy=0;exitPerimeter=0;strokeColor=#97D077;strokeWidth=4;endArrow=none;endFill=0;jumpStyle=arc;" edge="1" parent="1" source="GZBGt0tV6EPpzuoUCOiD-2" target="GZBGt0tV6EPpzuoUCOiD-64">
          <mxGeometry relative="1" as="geometry">
            <mxPoint x="1001" y="1780" as="sourcePoint" />
            <mxPoint x="931" y="2214" as="targetPoint" />
          </mxGeometry>
        </mxCell>
        <mxCell id="GZBGt0tV6EPpzuoUCOiD-67" style="rounded=1;orthogonalLoop=1;jettySize=auto;html=1;strokeColor=#FF66B3;strokeWidth=4;endArrow=none;endFill=0;elbow=vertical;jumpStyle=arc;" edge="1" parent="1" source="12ae3frHGvqBDCMUcqmj-64" target="GZBGt0tV6EPpzuoUCOiD-64">
          <mxGeometry relative="1" as="geometry">
            <mxPoint x="585" y="2214" as="sourcePoint" />
            <mxPoint x="585" y="2035" as="targetPoint" />
          </mxGeometry>
        </mxCell>
        <mxCell id="GZBGt0tV6EPpzuoUCOiD-68" style="rounded=1;orthogonalLoop=1;jettySize=auto;html=1;strokeColor=#97D077;strokeWidth=4;endArrow=none;endFill=0;elbow=vertical;jumpStyle=arc;" edge="1" parent="1" source="GZBGt0tV6EPpzuoUCOiD-48" target="GZBGt0tV6EPpzuoUCOiD-64">
          <mxGeometry relative="1" as="geometry">
            <mxPoint x="908" y="2214" as="sourcePoint" />
            <mxPoint x="908" y="2035" as="targetPoint" />
          </mxGeometry>
        </mxCell>
        <mxCell id="GZBGt0tV6EPpzuoUCOiD-69" style="rounded=1;orthogonalLoop=1;jettySize=auto;html=1;entryX=0.08;entryY=0.05;entryDx=0;entryDy=0;entryPerimeter=0;strokeColor=#97D077;strokeWidth=4;endArrow=none;endFill=0;elbow=vertical;jumpStyle=arc;" edge="1" parent="1" source="GZBGt0tV6EPpzuoUCOiD-48" target="12ae3frHGvqBDCMUcqmj-64">
          <mxGeometry relative="1" as="geometry">
            <mxPoint x="630" y="1991" as="sourcePoint" />
            <mxPoint x="864" y="1991" as="targetPoint" />
          </mxGeometry>
        </mxCell>
        <mxCell id="GZBGt0tV6EPpzuoUCOiD-70" style="rounded=1;orthogonalLoop=1;jettySize=auto;html=1;strokeColor=#468CAA;strokeWidth=4;endArrow=none;endFill=0;elbow=vertical;jumpStyle=arc;" edge="1" parent="1" source="12ae3frHGvqBDCMUcqmj-18" target="GZBGt0tV6EPpzuoUCOiD-64">
          <mxGeometry relative="1" as="geometry">
            <mxPoint x="630" y="2026" as="sourcePoint" />
            <mxPoint x="871" y="2218" as="targetPoint" />
          </mxGeometry>
        </mxCell>
        <mxCell id="GZBGt0tV6EPpzuoUCOiD-73" style="rounded=1;orthogonalLoop=1;jettySize=auto;html=1;exitX=0;exitY=0.5;exitDx=0;exitDy=0;exitPerimeter=0;strokeColor=#97D077;strokeWidth=4;endArrow=none;endFill=0;jumpStyle=none;" edge="1" parent="1" source="GZBGt0tV6EPpzuoUCOiD-2" target="12ae3frHGvqBDCMUcqmj-64">
          <mxGeometry relative="1" as="geometry">
            <mxPoint x="1100" y="1780" as="sourcePoint" />
            <mxPoint x="1010" y="2000" as="targetPoint" />
          </mxGeometry>
        </mxCell>
        <mxCell id="GZBGt0tV6EPpzuoUCOiD-71" style="rounded=1;orthogonalLoop=1;jettySize=auto;html=1;strokeColor=#468CAA;strokeWidth=4;endArrow=none;endFill=0;jumpStyle=arc;entryX=0;entryY=0.5;entryDx=0;entryDy=0;entryPerimeter=0;" edge="1" parent="1" source="GZBGt0tV6EPpzuoUCOiD-64" target="12ae3frHGvqBDCMUcqmj-22">
          <mxGeometry relative="1" as="geometry">
            <mxPoint x="1100" y="1780" as="sourcePoint" />
            <mxPoint x="880" y="1740" as="targetPoint" />
          </mxGeometry>
        </mxCell>
        <mxCell id="GZBGt0tV6EPpzuoUCOiD-72" style="rounded=1;orthogonalLoop=1;jettySize=auto;html=1;strokeColor=#468CAA;strokeWidth=4;endArrow=none;endFill=0;entryX=0;entryY=0.5;entryDx=0;entryDy=0;entryPerimeter=0;jumpStyle=arc;" edge="1" parent="1" source="GZBGt0tV6EPpzuoUCOiD-64" target="12ae3frHGvqBDCMUcqmj-7">
          <mxGeometry relative="1" as="geometry">
            <mxPoint x="948" y="2030" as="sourcePoint" />
            <mxPoint x="1380" y="2259" as="targetPoint" />
          </mxGeometry>
        </mxCell>
        <mxCell id="GZBGt0tV6EPpzuoUCOiD-74" style="rounded=1;orthogonalLoop=1;jettySize=auto;html=1;strokeWidth=4;strokeColor=#97D077;endArrow=none;endFill=0;jumpStyle=arc;" edge="1" parent="1" source="GZBGt0tV6EPpzuoUCOiD-48" target="12ae3frHGvqBDCMUcqmj-56">
          <mxGeometry relative="1" as="geometry">
            <mxPoint x="630" y="2259" as="sourcePoint" />
            <mxPoint x="864" y="2259" as="targetPoint" />
          </mxGeometry>
        </mxCell>
        <mxCell id="GZBGt0tV6EPpzuoUCOiD-75" value="" style="group" vertex="1" connectable="0" parent="1">
          <mxGeometry x="1365" y="2335.73" width="90" height="113" as="geometry" />
        </mxCell>
        <mxCell id="GZBGt0tV6EPpzuoUCOiD-76" value="" style="sketch=0;points=[[0.015,0.015,0],[0.985,0.015,0],[0.985,0.985,0],[0.015,0.985,0],[0.25,0,0],[0.5,0,0],[0.75,0,0],[1,0.25,0],[1,0.5,0],[1,0.75,0],[0.75,1,0],[0.5,1,0],[0.25,1,0],[0,0.75,0],[0,0.5,0],[0,0.25,0]];verticalLabelPosition=bottom;html=1;verticalAlign=top;aspect=fixed;align=center;pointerEvents=1;shape=mxgraph.cisco19.rect;prIcon=l3_switch;fillColor=#FAFAFA;strokeColor=#005073;" vertex="1" parent="GZBGt0tV6EPpzuoUCOiD-75">
          <mxGeometry x="5" width="80" height="80" as="geometry" />
        </mxCell>
        <mxCell id="GZBGt0tV6EPpzuoUCOiD-77" style="rounded=1;orthogonalLoop=1;jettySize=auto;html=1;exitX=0;exitY=0.5;exitDx=0;exitDy=0;exitPerimeter=0;entryX=0.985;entryY=0.985;entryDx=0;entryDy=0;entryPerimeter=0;strokeColor=#97D077;strokeWidth=4;endArrow=none;endFill=0;" edge="1" parent="1" source="12ae3frHGvqBDCMUcqmj-40" target="GZBGt0tV6EPpzuoUCOiD-76">
          <mxGeometry relative="1" as="geometry">
            <mxPoint x="1168" y="2518" as="sourcePoint" />
            <mxPoint x="908" y="2303" as="targetPoint" />
          </mxGeometry>
        </mxCell>
        <mxCell id="GZBGt0tV6EPpzuoUCOiD-79" style="rounded=1;orthogonalLoop=1;jettySize=auto;html=1;strokeColor=#FF66B3;strokeWidth=4;endArrow=none;endFill=0;elbow=vertical;jumpStyle=arc;" edge="1" parent="1" source="GZBGt0tV6EPpzuoUCOiD-76" target="12ae3frHGvqBDCMUcqmj-22">
          <mxGeometry relative="1" as="geometry">
            <mxPoint x="908" y="2214" as="sourcePoint" />
            <mxPoint x="908" y="2035" as="targetPoint" />
          </mxGeometry>
        </mxCell>
        <mxCell id="GZBGt0tV6EPpzuoUCOiD-80" style="rounded=1;orthogonalLoop=1;jettySize=auto;html=1;entryX=0.305;entryY=0.456;entryDx=0;entryDy=0;entryPerimeter=0;strokeColor=#97D077;strokeWidth=4;endArrow=none;endFill=0;" edge="1" parent="1" source="GZBGt0tV6EPpzuoUCOiD-64" target="GZBGt0tV6EPpzuoUCOiD-76">
          <mxGeometry relative="1" as="geometry">
            <mxPoint x="953" y="2259" as="sourcePoint" />
            <mxPoint x="1380" y="2259" as="targetPoint" />
          </mxGeometry>
        </mxCell>
        <mxCell id="GZBGt0tV6EPpzuoUCOiD-81" style="rounded=1;orthogonalLoop=1;jettySize=auto;html=1;strokeColor=#97D077;strokeWidth=4;endArrow=none;endFill=0;jumpStyle=arc;" edge="1" parent="1" source="12ae3frHGvqBDCMUcqmj-64" target="GZBGt0tV6EPpzuoUCOiD-76">
          <mxGeometry relative="1" as="geometry">
            <mxPoint x="953" y="2259" as="sourcePoint" />
            <mxPoint x="1429" y="2258" as="targetPoint" />
          </mxGeometry>
        </mxCell>
        <mxCell id="GZBGt0tV6EPpzuoUCOiD-85" value="" style="group" vertex="1" connectable="0" parent="1">
          <mxGeometry x="1990" y="1540" width="220" height="40" as="geometry" />
        </mxCell>
        <mxCell id="GZBGt0tV6EPpzuoUCOiD-86" style="rounded=1;orthogonalLoop=1;jettySize=auto;html=1;entryX=0;entryY=0.5;entryDx=0;entryDy=0;entryPerimeter=0;endArrow=none;endFill=0;strokeColor=#FF66B3;strokeWidth=4;" edge="1" parent="GZBGt0tV6EPpzuoUCOiD-85">
          <mxGeometry relative="1" as="geometry">
            <mxPoint y="21" as="sourcePoint" />
            <mxPoint x="126" y="21" as="targetPoint" />
          </mxGeometry>
        </mxCell>
        <mxCell id="GZBGt0tV6EPpzuoUCOiD-87" value="&lt;font style=&quot;font-size: 18px;&quot;&gt;HA線路&lt;/font&gt;" style="text;html=1;align=center;verticalAlign=middle;resizable=0;points=[];autosize=1;strokeColor=none;fillColor=none;" vertex="1" parent="GZBGt0tV6EPpzuoUCOiD-85">
          <mxGeometry x="130" width="80" height="40" as="geometry" />
        </mxCell>
        <mxCell id="GZBGt0tV6EPpzuoUCOiD-90" value="" style="group" vertex="1" connectable="0" parent="1">
          <mxGeometry x="199.9999999999999" y="2346.73" width="105" height="112" as="geometry" />
        </mxCell>
        <mxCell id="GZBGt0tV6EPpzuoUCOiD-91" value="" style="sketch=0;points=[[0.015,0.015,0],[0.985,0.015,0],[0.985,0.985,0],[0.015,0.985,0],[0.25,0,0],[0.5,0,0],[0.75,0,0],[1,0.25,0],[1,0.5,0],[1,0.75,0],[0.75,1,0],[0.5,1,0],[0.25,1,0],[0,0.75,0],[0,0.5,0],[0,0.25,0]];verticalLabelPosition=bottom;html=1;verticalAlign=top;aspect=fixed;align=center;pointerEvents=1;shape=mxgraph.cisco19.rect;prIcon=firewall;fillColor=#FAFAFA;strokeColor=#005073;" vertex="1" parent="GZBGt0tV6EPpzuoUCOiD-90">
          <mxGeometry x="1.3000000000000114" y="11" width="102.4" height="80" as="geometry" />
        </mxCell>
        <mxCell id="GZBGt0tV6EPpzuoUCOiD-92" style="rounded=1;orthogonalLoop=1;jettySize=auto;html=1;strokeColor=#FF66B3;strokeWidth=4;endArrow=none;endFill=0;elbow=vertical;jumpStyle=arc;" edge="1" parent="1" source="GZBGt0tV6EPpzuoUCOiD-91" target="12ae3frHGvqBDCMUcqmj-15">
          <mxGeometry relative="1" as="geometry">
            <mxPoint x="585" y="2214" as="sourcePoint" />
            <mxPoint x="585" y="2035" as="targetPoint" />
          </mxGeometry>
        </mxCell>
        <mxCell id="GZBGt0tV6EPpzuoUCOiD-93" style="rounded=1;orthogonalLoop=1;jettySize=auto;html=1;strokeColor=#97D077;strokeWidth=4;endArrow=none;endFill=0;elbow=vertical;jumpStyle=arc;exitX=0.98;exitY=0.5;exitDx=0;exitDy=0;exitPerimeter=0;" edge="1" parent="1" source="FHWAyMyx4tsviVWadhPC-1" target="GZBGt0tV6EPpzuoUCOiD-91">
          <mxGeometry relative="1" as="geometry">
            <mxPoint x="280" y="2615" as="sourcePoint" />
            <mxPoint x="563" y="2046" as="targetPoint" />
          </mxGeometry>
        </mxCell>
        <mxCell id="GZBGt0tV6EPpzuoUCOiD-94" style="rounded=1;orthogonalLoop=1;jettySize=auto;html=1;strokeColor=#97D077;strokeWidth=4;endArrow=none;endFill=0;elbow=vertical;jumpStyle=arc;exitX=0.98;exitY=0.5;exitDx=0;exitDy=0;exitPerimeter=0;" edge="1" parent="1" source="12ae3frHGvqBDCMUcqmj-67" target="GZBGt0tV6EPpzuoUCOiD-91">
          <mxGeometry relative="1" as="geometry">
            <mxPoint x="110" y="2388" as="sourcePoint" />
            <mxPoint x="330" y="2300" as="targetPoint" />
          </mxGeometry>
        </mxCell>
        <mxCell id="GZBGt0tV6EPpzuoUCOiD-95" style="rounded=1;orthogonalLoop=1;jettySize=auto;html=1;strokeColor=#97D077;strokeWidth=4;endArrow=none;endFill=0;elbow=vertical;jumpStyle=arc;exitX=1;exitY=0.5;exitDx=0;exitDy=0;exitPerimeter=0;" edge="1" parent="1" source="GZBGt0tV6EPpzuoUCOiD-91" target="12ae3frHGvqBDCMUcqmj-18">
          <mxGeometry relative="1" as="geometry">
            <mxPoint x="106" y="2259" as="sourcePoint" />
            <mxPoint x="217" y="2357" as="targetPoint" />
          </mxGeometry>
        </mxCell>
        <mxCell id="GZBGt0tV6EPpzuoUCOiD-96" style="rounded=1;orthogonalLoop=1;jettySize=auto;html=1;strokeColor=#97D077;strokeWidth=4;endArrow=none;endFill=0;elbow=vertical;jumpStyle=arc;exitX=1;exitY=0.5;exitDx=0;exitDy=0;exitPerimeter=0;" edge="1" parent="1" source="GZBGt0tV6EPpzuoUCOiD-91" target="GZBGt0tV6EPpzuoUCOiD-48">
          <mxGeometry relative="1" as="geometry">
            <mxPoint x="314" y="2397" as="sourcePoint" />
            <mxPoint x="541" y="2281" as="targetPoint" />
          </mxGeometry>
        </mxCell>
      </root>
    </mxGraphModel>
  </diagram>
</mxfile>
